<?xml version="1.0" encoding="UTF-8" standalone="no"?>
<!-- Created with Inkscape (http://www.inkscape.org/) -->

<svg
   xmlns:dc="http://purl.org/dc/elements/1.1/"
   xmlns:cc="http://creativecommons.org/ns#"
   xmlns:rdf="http://www.w3.org/1999/02/22-rdf-syntax-ns#"
   xmlns:svg="http://www.w3.org/2000/svg"
   xmlns="http://www.w3.org/2000/svg"
   xmlns:xlink="http://www.w3.org/1999/xlink"
   xmlns:sodipodi="http://sodipodi.sourceforge.net/DTD/sodipodi-0.dtd"
   xmlns:inkscape="http://www.inkscape.org/namespaces/inkscape"
   width="5rem"
   height="2.5rem"
   viewBox="0 0 42.738387 10.173595"
   version="1.1"
   id="svg48"
   inkscape:version="0.92.0 r15299"
   sodipodi:docname="efset.svg">
  <defs
     id="defs42">
    <path
       d="M 0,0.64550355 H 163.93641 V 58.747271 H 0 Z"
       id="path-1"
       inkscape:connector-curvature="0" />
    <path
       d="M 0,0.64550355 H 163.93641 V 58.747271 H 0 Z"
       id="path-3"
       inkscape:connector-curvature="0" />
    <mask
       fill="white"
       id="mask-2">
      <use
         id="use58"
         xlink:href="#path-1"
         x="0"
         y="0"
         width="100%"
         height="100%" />
    </mask>
    <path
       d="M 0,0.64550355 H 163.93641 V 58.747271 H 0 Z"
       id="path-1-7"
       inkscape:connector-curvature="0" />
    <path
       d="M 0,0.64550355 H 163.93641 V 58.747271 H 0 Z"
       id="path-3-2"
       inkscape:connector-curvature="0" />
    <mask
       fill="white"
       id="mask-4">
      <use
         id="use393"
         xlink:href="#path-3-2"
         x="0"
         y="0"
         width="100%"
         height="100%" />
    </mask>
    <mask
       fill="white"
       id="mask-2-9">
      <use
         id="use360"
         xlink:href="#path-1-7"
         x="0"
         y="0"
         width="100%"
         height="100%" />
    </mask>
  </defs>
  <sodipodi:namedview
     id="base"
     pagecolor="#ffffff"
     bordercolor="#666666"
     borderopacity="1.0"
     inkscape:pageopacity="0.0"
     inkscape:pageshadow="2"
     inkscape:zoom="4.9959224"
     inkscape:cx="80.265458"
     inkscape:cy="18.725692"
     inkscape:document-units="mm"
     inkscape:current-layer="layer1"
     showgrid="false"
     fit-margin-top="0"
     fit-margin-left="0"
     fit-margin-right="0"
     fit-margin-bottom="0"
     units="px"
     inkscape:window-width="1280"
     inkscape:window-height="744"
     inkscape:window-x="-4"
     inkscape:window-y="-4"
     inkscape:window-maximized="1" />
  <metadata
     id="metadata45">
    <rdf:RDF>
      <cc:Work
         rdf:about="">
        <dc:format>image/svg+xml</dc:format>
        <dc:type
           rdf:resource="http://purl.org/dc/dcmitype/StillImage" />
        <dc:title></dc:title>
      </cc:Work>
    </rdf:RDF>
  </metadata>
  <g
     inkscape:label="Layer 1"
     inkscape:groupmode="layer"
     id="layer1"
     transform="translate(133.11773,-224.04066)">
    <g
       id="g746"
       transform="translate(0.13229135,-0.13228623)">
      <path
         id="path714"
         transform="matrix(0.26458333,0,0,0.26458333,-134.01888,224.13443)"
         d="m 77.311838,27.998161 c 0,5.125341 2.892229,10.098799 9.9462,10.098799 7.511053,0 10.403282,-5.379674 10.403282,-10.098799 0,-12.534661 -18.420852,-6.851221 -18.420852,-18.1163686 0,-4.2118927 2.689479,-8.3227688 8.221036,-8.3227688 5.226358,0 8.524802,2.9438114 8.524802,8.0691526 v 0.8625818 h 1.015181 V 9.7291928 c 0,-4.2627593 -2.384996,-9.08361761 -9.438966,-9.08361761 -7.104122,0 -9.337234,5.53155701 -9.337234,9.03275111 0,6.1405227 4.060009,7.8656867 9.539983,9.5915667 4.262043,1.369814 8.881585,2.892228 8.881585,8.474652 0,6.546022 -4.364493,9.438967 -9.439684,9.438967 -5.68344,0 -8.880151,-3.653794 -8.880151,-9.185351 v -1.57328 h -1.015182 z"
         style="fill:cyan;fill-rule:evenodd;stroke:none;stroke-width:5"
         inkscape:connector-curvature="0" />
      <path
         id="path712"
         transform="matrix(0.26458333,0,0,0.26458333,-134.01888,224.13443)"
         d="m 113.34111,37.487995 h 16.89915 V 36.574546 H 114.35701 V 19.016277 h 14.36084 V 18.102112 H 114.35701 V 2.1679892 h 15.47704 V 1.2545408 h -16.49294 z"
         style="fill:cyan;fill-rule:evenodd;stroke:none;stroke-width:1"
         inkscape:connector-curvature="0" />
      <path
         id="Fill-1"
         transform="matrix(0.26458333,0,0,0.26458333,-134.01888,224.13443)"
         d="m 153.07647,37.487995 h 1.01447 V 2.1679892 h 9.8459 V 1.2545408 h -20.70555 v 0.9134484 h 9.84518 z"
         style="fill:cyan;fill-rule:evenodd;stroke:none;stroke-width:2"
         inkscape:connector-curvature="0" />
      <path
         id="Fill-4"
         d="m -131.12954,224.4667 -0.34746,1.69311 c 0.39314,-0.59255 0.85528,-1.15818 1.38262,-1.69311 z"
         inkscape:connector-curvature="0"
         style="fill:cyan;fill-rule:evenodd;stroke:none;stroke-width:0.26458332" />
      <path
         id="Fill-6"
         d="m -130.63854,228.00661 c -0.40735,0.90721 -0.61435,1.82732 -0.61435,2.73207 0,0.69585 0.12416,1.35968 0.36888,1.97384 0.21173,0.53113 0.51104,1.01582 0.8911,1.44498 h 1.69443 c -0.2377,-0.15146 -0.45701,-0.32755 -0.65605,-0.5264 -0.95744,-0.95574 -1.41181,-2.25874 -1.27817,-3.66828 0.0658,-0.69566 0.27125,-1.39228 0.60999,-2.0707 0.34992,-0.70079 0.83367,-1.36101 1.43664,-1.9636 0.57492,-0.57417 1.22624,-1.04066 1.93517,-1.38641 0.0527,-0.0262 0.10559,-0.0512 0.15885,-0.0756 H -127.73 c -0.37172,0.27202 -0.72656,0.57587 -1.06189,0.91082 -0.80144,0.8003 -1.4228,1.68496 -1.84665,2.62932"
         inkscape:connector-curvature="0"
         style="fill:cyan;fill-rule:evenodd;stroke:none;stroke-width:0.26458332" />
      <path
         id="Fill-8"
         d="m -131.57428,230.73888 c 0,-0.95081 0.21628,-1.9147 0.64241,-2.86342 0.43995,-0.98038 1.08349,-1.89688 1.9128,-2.72467 0.24415,-0.24415 0.49853,-0.47218 0.76182,-0.68411 h -1.37977 c -0.0555,0.0533 -0.11051,0.10729 -0.16529,0.16131 -0.76581,0.76467 -1.39229,1.59568 -1.86883,2.47749 l -0.97394,4.74837 c 0.0688,0.51104 0.19752,1.0037 0.38556,1.47284 0.11525,0.28813 0.2523,0.56526 0.4102,0.83083 h 1.43683 c -0.32092,-0.40281 -0.57872,-0.84694 -0.76998,-1.3267 -0.25988,-0.65094 -0.39181,-1.35532 -0.39181,-2.09194"
         inkscape:connector-curvature="0"
         style="fill:cyan;fill-rule:evenodd;stroke:none;stroke-width:0.26458332" />
      <path
         id="Fill-10"
         d="m -123.30871,230.75721 c 0.57549,-0.57473 0.89243,-1.2359 0.89243,-1.86181 0,-0.48185 -0.18274,-0.91859 -0.5283,-1.26396 -0.16491,-0.16434 -0.35996,-0.2885 -0.5789,-0.3702 l -0.11089,0.54156 c 0.10919,0.0595 0.20908,0.13345 0.29685,0.22083 0.30291,0.30235 0.44905,0.71804 0.41304,1.17032 -0.036,0.44944 -0.2523,0.89337 -0.60999,1.25031 -0.21666,0.21666 -0.47389,0.38859 -0.74533,0.50554 l -0.10426,0.50649 c 0.38025,-0.14197 0.75197,-0.37626 1.07535,-0.69908"
         inkscape:connector-curvature="0"
         style="fill:cyan;fill-rule:evenodd;stroke:none;stroke-width:0.26458332" />
      <path
         id="Fill-12"
         d="m -123.24466,229.16821 c 0.0286,-0.35731 -0.0851,-0.68316 -0.32035,-0.91783 -0.0426,-0.0421 -0.0885,-0.0804 -0.138,-0.11411 l -0.4953,2.41512 c 0.15714,-0.0904 0.30537,-0.20244 0.43654,-0.33418 0.30386,-0.30272 0.48716,-0.67539 0.51711,-1.049"
         inkscape:connector-curvature="0"
         style="fill:cyan;fill-rule:evenodd;stroke:none;stroke-width:0.26458332" />
      <path
         id="Fill-14"
         d="m -122.09484,228.89534 c 0,0.7114 -0.35029,1.45351 -0.98663,2.08871 -0.39996,0.39902 -0.87708,0.68695 -1.37731,0.83689 l -0.12227,0.59502 c 0.64468,-0.17098 1.28045,-0.54498 1.81898,-1.08331 1.39873,-1.39608 1.61046,-3.29069 0.49208,-4.40736 -0.29153,-0.29153 -0.65415,-0.49284 -1.06226,-0.59615 l -0.12644,0.61644 c 0.28187,0.0978 0.53436,0.25267 0.74097,0.45929 0.40755,0.40641 0.62288,0.92181 0.62288,1.49047"
         inkscape:connector-curvature="0"
         style="fill:cyan;fill-rule:evenodd;stroke:none;stroke-width:0.26458332" />
      <path
         id="Fill-16"
         d="m -132.55798,233.4456 c -0.10122,-0.25286 -0.18614,-0.51123 -0.25457,-0.77566 l -0.30518,1.48763 h 0.89792 c -0.12738,-0.22936 -0.24017,-0.46687 -0.33817,-0.71197"
         inkscape:connector-curvature="0"
         style="fill:cyan;fill-rule:evenodd;stroke:none;stroke-width:0.26458332" />
      <path
         id="Fill-18"
         d="m -128.47143,226.71898 h 0.82836 c 0.0438,-0.0457 0.088,-0.0914 0.13326,-0.13667 0.87916,-0.87707 1.97138,-1.44327 3.0926,-1.60648 l 0.10406,-0.50915 h -0.90323 c -0.97052,0.30557 -1.92531,0.87328 -2.7423,1.68856 -0.18273,0.18236 -0.35352,0.37058 -0.51275,0.56374"
         inkscape:connector-curvature="0"
         style="fill:cyan;fill-rule:evenodd;stroke:none;stroke-width:0.26458332" />
      <path
         id="Fill-20"
         d="m -122.53485,231.55987 c -0.62099,0.62003 -1.36537,1.03819 -2.11734,1.20349 l -0.13117,0.64069 c 0.9728,-0.19107 1.9384,-0.70893 2.69396,-1.46337 0.85679,-0.85489 1.41087,-1.89271 1.56118,-2.92237 0.0271,-0.18634 0.0402,-0.36945 0.0404,-0.54933 0,-0.0423 -7.7e-4,-0.0851 -0.002,-0.12682 -0.0301,-0.8365 -0.35845,-1.58563 -0.96825,-2.19448 -0.45493,-0.45418 -1.03099,-0.73244 -1.66353,-0.84314 l -0.14558,0.70988 c 0.46934,0.1162 0.88731,0.34708 1.22528,0.68411 1.24747,1.24576 1.03573,3.33561 -0.49265,4.86134"
         inkscape:connector-curvature="0"
         style="fill:cyan;fill-rule:evenodd;stroke:none;stroke-width:0.26458332" />
      <path
         id="Fill-22"
         d="m -125.6131,228.1027 h -0.59274 c -0.4828,0.52791 -0.75727,1.16823 -0.75727,1.77575 0,0.17875 0.0225,0.34916 0.0667,0.50991 h 0.57208 c -0.0978,-0.19733 -0.14937,-0.41968 -0.14937,-0.6534 0,-0.51161 0.23543,-1.02872 0.66325,-1.45598 0.0631,-0.0629 0.12909,-0.12188 0.19733,-0.17628"
         inkscape:connector-curvature="0"
         style="fill:cyan;fill-rule:evenodd;stroke:none;stroke-width:0.26458332" />
      <path
         id="Fill-24"
         d="m -124.69383,226.32562 c -0.35068,0.0771 -0.69624,0.21002 -1.02398,0.39332 h 0.94361 z"
         inkscape:connector-curvature="0"
         style="fill:cyan;fill-rule:evenodd;stroke:none;stroke-width:0.26458332" />
      <path
         id="Fill-26"
         d="m -121.2312,225.92076 c 0.43313,0.43238 0.73888,0.93299 0.90854,1.48877 0.005,0.0157 0.01,0.0319 0.0144,0.048 l 0.15146,-0.73851 h 0.42877 c -0.20282,-0.51407 -0.51047,-0.97886 -0.91612,-1.38432 -0.39276,-0.392 -0.85717,-0.68051 -1.36707,-0.86817 h -0.93868 l -0.10729,0.52299 c 0.15221,0.0269 0.3012,0.0629 0.44754,0.10747 0.53227,0.16492 0.9963,0.44205 1.37845,0.82381"
         inkscape:connector-curvature="0"
         style="fill:cyan;fill-rule:evenodd;stroke:none;stroke-width:0.26458332" />
      <path
         id="Fill-28"
         d="m -119.3847,226.71898 h 1.09354 c -0.20775,-0.84485 -0.61833,-1.61179 -1.21467,-2.2523 h -1.75263 c 0.3086,0.17591 0.59009,0.39011 0.84163,0.64108 0.46763,0.46744 0.8147,1.00881 1.03213,1.61122"
         inkscape:connector-curvature="0"
         style="fill:cyan;fill-rule:evenodd;stroke:none;stroke-width:0.26458332" />
      <path
         id="Fill-30"
         d="m -124.62404,225.98462 0.13743,-0.67197 c -0.93906,0.16283 -1.89897,0.63804 -2.70344,1.40631 h 0.87688 c 0.51939,-0.37494 1.09791,-0.62743 1.68913,-0.73434"
         inkscape:connector-curvature="0"
         style="fill:cyan;fill-rule:evenodd;stroke:none;stroke-width:0.26458332" />
      <path
         id="Fill-32"
         d="m -125.82811,231.86048 7.6e-4,-0.002 h -0.008 -1.23989 c 0.32376,0.29874 0.70439,0.50099 1.12331,0.59767 z"
         inkscape:connector-curvature="0"
         style="fill:cyan;fill-rule:evenodd;stroke:none;stroke-width:0.26458332" />
      <path
         id="Fill-34"
         d="m -128.86803,230.25112 c 0,0.0459 0.001,0.0917 0.003,0.13724 h 0.72733 c -0.012,-0.11013 -0.018,-0.22159 -0.018,-0.33533 0,-0.66041 0.20093,-1.33579 0.56904,-1.95033 h -0.68751 c -0.38802,0.69131 -0.59369,1.42432 -0.59369,2.14842"
         inkscape:connector-curvature="0"
         style="fill:cyan;fill-rule:evenodd;stroke:none;stroke-width:0.26458332" />
      <path
         id="Fill-36"
         d="m -126.01784,232.77012 c -0.51275,-0.1162 -0.97469,-0.37228 -1.35968,-0.75594 -0.05,-0.0504 -0.0976,-0.10218 -0.1433,-0.15601 h -0.94873 c 0.14008,0.25742 0.3158,0.49322 0.52412,0.70155 0.48223,0.48128 1.09241,0.78191 1.78675,0.88541 z"
         inkscape:connector-curvature="0"
         style="fill:cyan;fill-rule:evenodd;stroke:none;stroke-width:0.26458332" />
      <path
         id="Fill-38"
         d="m -129.91307,229.99306 c -0.12416,1.31248 0.29684,2.52412 1.18567,3.41181 0.31675,0.31561 0.68903,0.5681 1.10909,0.75272 h 1.31134 l 0.0828,-0.39731 c -0.75519,-0.116 -1.42034,-0.44678 -1.94844,-0.97393 -0.27145,-0.27069 -0.49247,-0.58459 -0.65814,-0.92788 h -0.76334 l 0.29438,-1.47019 h 0.11317 c -0.002,-0.0455 -0.003,-0.0912 -0.003,-0.13743 0,-0.72467 0.19013,-1.45483 0.55028,-2.14861 h -0.18823 l 0.25666,-1.25997 c -0.76997,0.97526 -1.23988,2.06919 -1.34224,3.15079"
         inkscape:connector-curvature="0"
         style="fill:cyan;fill-rule:evenodd;stroke:none;stroke-width:0.26458332" />
      <path
         id="Fill-40"
         d="m -127.83473,230.05303 c 0,0.11431 0.007,0.22614 0.0199,0.33533 h 0.5882 c -0.0381,-0.16378 -0.058,-0.33476 -0.058,-0.50972 0,-0.36243 0.0811,-0.72827 0.24074,-1.08748 0.1071,-0.2413 0.24718,-0.47142 0.41702,-0.68846 h -0.58061 c -0.40451,0.60771 -0.62724,1.2886 -0.62724,1.95033"
         inkscape:connector-curvature="0"
         style="fill:cyan;fill-rule:evenodd;stroke:none;stroke-width:0.26458332" />
      <path
         id="Fill-42"
         d="m -124.85302,233.74214 -0.0851,0.41532 h 1.07933 c 0.88731,-0.3194 1.72457,-0.84238 2.40849,-1.52573 0.0343,-0.0337 0.0679,-0.0688 0.10103,-0.10274 l 0.26785,-1.30301 c -0.22368,0.3304 -0.48489,0.64658 -0.7804,0.94153 -0.83367,0.83271 -1.91205,1.39266 -2.99119,1.57463"
         inkscape:connector-curvature="0"
         style="fill:cyan;fill-rule:evenodd;stroke:none;stroke-width:0.26458332" />
      <path
         id="Fill-44"
         d="m -121.6839,234.15755 0.22008,-1.07004 c -0.47522,0.42935 -1.01034,0.78988 -1.57805,1.07004 z"
         inkscape:connector-curvature="0"
         style="fill:cyan;fill-rule:evenodd;stroke:none;stroke-width:0.26458332" />
      <path
         id="Fill-46"
         d="m -119.44514,228.46903 h -0.72182 c 0,0.19562 -0.0138,0.39447 -0.0432,0.59578 -0.0834,0.57151 -0.28282,1.14434 -0.58232,1.69026 h 0.72032 c 0.31371,-0.61909 0.51672,-1.26263 0.5952,-1.90314 0.0157,-0.12832 0.026,-0.2559 0.0318,-0.3829"
         inkscape:connector-curvature="0"
         style="fill:cyan;fill-rule:evenodd;stroke:none;stroke-width:0.26458332" />
      <path
         id="Fill-48"
         d="m -117.56181,224.4667 h -1.51568 c 0.54781,0.65511 0.92465,1.41939 1.11724,2.2523 h 1.17202 c -0.0724,-0.50043 -0.19998,-0.98322 -0.38196,-1.44271 -0.11126,-0.28092 -0.24206,-0.55103 -0.39162,-0.80959"
         inkscape:connector-curvature="0"
         style="fill:cyan;fill-rule:evenodd;stroke:none;stroke-width:0.26458332" />
      <path
         id="Fill-50"
         d="m -117.19371,224.4667 c 0.12056,0.22292 0.22804,0.45342 0.32225,0.69169 0.1143,0.28812 0.20756,0.58402 0.28035,0.88788 l 0.32376,-1.57957 z"
         inkscape:connector-curvature="0"
         style="fill:cyan;fill-rule:evenodd;stroke:none;stroke-width:0.26458332" />
      <path
         id="Fill-52"
         d="m -117.84724,228.72338 c -0.072,0.68316 -0.25116,1.36688 -0.52696,2.03184 h 0.74059 l 0.46195,-2.28623 h -0.65397 c -0.005,0.0846 -0.0127,0.16947 -0.0216,0.25439"
         inkscape:connector-curvature="0"
         style="fill:cyan;fill-rule:evenodd;stroke:none;stroke-width:0.26458332" />
      <path
         id="Fill-54"
         d="m -118.14759,228.46903 h -0.97621 c -0.005,0.13989 -0.0169,0.27998 -0.0339,0.42195 -0.0772,0.62724 -0.26671,1.25638 -0.5571,1.86409 h 0.99137 c 0.294,-0.67501 0.48318,-1.37067 0.55635,-2.06539 0.008,-0.0737 0.0142,-0.14691 0.0195,-0.22065"
         inkscape:connector-curvature="0"
         style="fill:cyan;fill-rule:evenodd;stroke:none;stroke-width:0.26458332" />
      <path
         id="Fill-56"
         d="m -125.58302,228.50586 c -0.36736,0.36679 -0.56961,0.80296 -0.56961,1.22908 0,0.24623 0.0694,0.46896 0.20112,0.6534 h 0.34404 l 0.44583,-2.20681 c -0.14974,0.0862 -0.29248,0.19525 -0.42138,0.32433"
         inkscape:connector-curvature="0"
         style="fill:cyan;fill-rule:evenodd;stroke:none;stroke-width:0.26458332" />
    </g>
  </g>
</svg>
