<?xml version="1.0" encoding="utf-8"?>
<!-- Generator: Adobe Illustrator 25.0.1, SVG Export Plug-In . SVG Version: 6.00 Build 0)  -->
<svg version="1.1" id="katman_1" xmlns="http://www.w3.org/2000/svg" xmlns:xlink="http://www.w3.org/1999/xlink" x="0px" y="0px"
	 viewBox="0 0 560 400" style="enable-background:new 0 0 560 400;" xml:space="preserve">
<style type="text/css">
	.st0{fill:#FF0000;}
</style>
<g transform="matrix(.0342187 0 0 -.0342187 124.824 352.384)">
	<path class="st0" d="M4059.96,8814.92c-30-8-80-14-110-15c-30,0-80-7-110-15s-68-15-84-15c-72,0-566-130-672.99-176
		c-17-8-40-14-51-14c-12,0-23-4-27-9c-3-5-20-13-37-17c-18-3-39-10-48-14c-8-4-33-15-55-24c-22-10-53-24-68-32c-16-8-37-14-47-14
		c-9,0-23-7-30-15s-20-15-30-15s-23-7-30-15s-21-15-31-15c-9,0-24-7-33-15c-8-8-21-15-30-15c-8,0-17-4-21-9c-3-6-29-21-58-36
		c-28-14-59-29-67-35c-8-5-55-32-105-61c-49-29-91-56-93-61c-2-4-8-8-14-8c-13,0-203-126-238-157c-14-13-28-23-32-23
		c-11,0-102-70-106-81c-2-5-10-9-18-9c-8,0-14-4-14-8c0-5-20-23-44-40c-73-53-113-90-311-287c-220-221-275-280-275-293
		c0-6-3-12-8-14c-4-1-25-25-47-53c-22-27-46-54-52-58c-7-4-13-12-13-18c0-5-5-15-10-22c-27-31-110-147-110-152c0-3-8-15-18-26
		c-11-10-25-32-33-47c-7-15-25-43-39-62c-30-42-46-68-60-95c-6-11-19-33-30-50c-11-16-24-40-29-52c-5-11-15-24-20-28
		c-6-3-11-15-11-26c0-10-4-19-10-19c-5,0-12-11-16-25c-3-13-12-29-20-36c-8-6-14-19-14-29c0-10-7-23-15-30c-8-7-15-19-15-27
		c0-8-7-21-15-29c-8-9-15-24-15-33c0-10-7-24-15-31s-15-23-15-36s-4-24-10-24c-5,0-13-12-16-27c-4-16-13-37-20-48c-8-11-14-29-14-41
		c0-12-5-24-11-26s-13-15-14-28c-2-14-10-38-19-55c-9-16-16-36-16-43s-4-20-9-30c-30-57-123-384-156-547c-9-44-23-106-31-137
		c-8-32-14-75-14-95c0-21-5-54-11-73c-6-19-15-84-19-145c-5-60-14-141-19-180c-13-86-13-558,0-639.99c5-33,13-109,18-170
		c5-60,14-123,20-138c6-16,11-48,11-73s6-73,14-107c8-34,22-98,31-142c31-144,105-410,132-472c7-17,13-38,13-46c0-8,7-28,15-43
		c8-16,15-37,15-46c0-10,5-18,10-18c6,0,10-13,10-29c0-16,7-34,15-41c8-7,17-27,21-46c3-19,10-34,15-34s9-11,9-24c0-13,7-29,15-36
		c8-7,15-21,15-31c0-9,7-24,15-33c8-8,15-23,15-34c0-11,7-25,15-32c8-7,15-20,15-30c0-10,7-23,15-30c8-7,15-21,15-32
		c0-10,7-21,15-24c8-4,15-14,15-24c0-11,5-22,11-25c5-4,15-17,20-28c5-12,18-35,29-52c11-16,24-39,29-50s20-36,33-55
		c13-19,27-42,31-50c16-32,125-199,137-210c3-3,22-31,44-62c21-32,42-58,47-58s9-6,9-12c0-7,15-30,33-50c17-20,39-46,47-58
		c45-65,548-579.99,566.99-579.99c6,0,13-7,17-15c3-8,12-15,20-15s16-4,18-9c7-19,424-321,444-321c2,0,23-13,46-30
		c22-16,47-30,55-30c7,0,13-4,13-8c0-4,25-20,55-36c30-15,57-32,60-37c4-5,15-9,26-9c10,0,19-4,19-8c0-5,25-19,55-33
		c30-13,55-27,55-31c0-5,5-8,11-8c11,0,139-58,192-86c15-8,31-13,36-10c5,3,14-1,21-9c7-8,17-15,24-15c10,0,76-24,151-55
		c94-39,471-148,570-165c28-4,63-13,78-19c16-6,50-11,76-11s52-5,58-11c6-6,48-13,94-16c46-3,93-10,103-16c25-13,347-31,541-30
		c219,1,507,17,532,31c12,7,50,12,85,12c35,1,81,7,103,15c22,8,59,15,83,15c23,0,59,7,79,15c19,8,47,15,61,15c14,0,48,6,76,14
		c28,8,110,31,181,52c164,46,302,91,337,110c14,8,34,14,45,14c10,0,27,7,37,15c11,8,29,15,40,15c12,0,30,7,40,15c11,8,28,15,38,15
		s18,5,18,10c0,6,5,10,11,10c17,0,288,126,299,139c3,3,25,16,50,29c25,13,59,32,75,42c17,11,39,24,50,30c11,6,34,19,50,30
		c17,11,40,25,53,31c12,7,22,16,22,21c0,4,4,8,10,8c9,0,61,34,190,125c112,78,165,118,175,130c6,6,30,27,55,46c74,57,95,76,294,276
		c238,238,276,279,276,291c0,6,3,12,8,14c6,2,31,33,95,113c4,5,37,51,72,100c35,50,78,109,94,132c17,23,31,47,31,53c0,5,4,10,10,10
		c5,0,12,11,16,25c3,14,10,25,15,25s14,10,19,23c6,12,19,36,30,52c11,17,24,40,29,52c5,11,15,24,20,28c6,3,11,14,11,25
		c0,10,7,20,15,24c8,3,15,14,15,25c0,10,7,21,15,25c8,3,15,14,15,24c0,11,7,25,15,32c8,7,15,20,15,30c0,10,7,23,15,30s15,17,15,23
		c0,6,14,40,31,76c32,69,35,75,69,156c12,28,25,59,30,70c29,70,115,329,156,470c9,33,23,80,30,104c8,25,14,57,14,72c0,14,7,43,15,62
		c8,20,15,56,15,81c0,24,7,57,15,72c8,17,15,55,15,90c0,33,5,65,11,71c6,6,15,69,20,140c5,70,13,153,18,183c13,72,12,530,0,599.99
		c-6,30-13,109-18,175c-4,66-13,130-19,142c-7,12-12,47-12,78c0,30-7,72-15,92c-8,19-15,53-15,75c0,21-7,55-15,75c-8,19-15,47-15,60
		c0,14-7,46-14,72c-8,25-22,71-30,101c-64,226-173,533-221,621.99c-8,14-15,33-15,42c0,9-4,16-10,16c-5,0-10,9-10,19
		c0,11-6,26-13,33c-8,7-17,26-21,41c-3,15-11,27-16,27c-6,0-10,9-10,19c0,11-7,26-15,35c-8,8-15,21-15,28c0,8-5,19-11,25
		c-14,14-35,50-50,86c-6,15-15,27-20,27s-9,9-9,20s-6,23-14,26s-17,13-20,22s-15,31-26,47c-11,17-25,40-31,53c-7,12-16,22-21,22
		c-4,0-8,6-8,13c0,6-29,53-65,102c-35,50-70,98-77,108c-13,18-36,49-58,74c-5,7-10,17-10,22c0,6-6,14-12,18c-7,4-31,31-53,58
		c-22,28-43,52-47,53c-5,2-8,8-8,14c0,5-19,30-42,55c-91,95-365,366-407,401c-23,20-66,57-95,80c-28,24-63,55-78,68
		c-14,13-29,24-32,24s-42,26-85,58c-111,80-193,135-281,190c-42,26-84,53-95,60c-11,6-29,17-40,22c-11,6-33,19-50,30
		c-16,10-66,38-110,60c-44,23-87,45-95,49c-61,33-80,41-94,41c-9,0-16,4-16,10c0,5-12,13-27,16c-16,4-32,10-38,14c-5,4-23,10-40,14
		c-16,4-33,12-36,17c-3,6-18,11-33,13c-15,1-32,8-38,14c-7,7-18,12-26,12s-28,6-45,14c-18,8-41,16-52,19c-11,3-51,17-90,30
		c-233,82-608.99,168-814.99,188c-47,4-105,12-130,18C4907.96,8834.92,4127.96,8831.92,4059.96,8814.92z M4508.96,6758.94
		c75-24,118-44,167-80c83-61,129-126,160-228c19-63,18-271-1-334c-42-138-147-248-290-302c-43-16-77-19-240-19h-190l-75,36
		c-52,24-92,52-128,90c-52,53-62,67-96,133c-65,124-60,349,11,485c29,56,155,180,182,180c9,0,22,5,27,10c6,6,33,17,60,24
		C4158.96,6770.94,4458.96,6774.94,4508.96,6758.94z M3071.97,6364.94c127-20,235-76,310-160c59-66,69-80,95-134l28-56l3-979.99
		c1-674.99-1-1001.99-9-1049.99c-25-163-53-282-70-299c-5-6-9-19-9-29c0-10-6-31-14-45c-7-15-30-61-50-102c-46-93-48-98-118-190
		c-120-162-318-310-498-375c-201-71-290-88-530-101c-378-21-793.99,102-1002.99,295c-209,194-266,404-167,616.99c18,38,36,71,41,72
		c5,2,9,8,9,14c0,15,102,139,163,200c98,95,114,97,173,16c69-94,207-190,334-232c25-8,82-20,128-27c72-11,96-11,170,3
		c131,25,160,38,222,98c77,75,98,125,110,269c5,64,11,505,15,980.99c6,972.99,0,908.99,83,1014.99c77,99,209,172,362,200
		C2938.97,6381.94,2971.97,6381.94,3071.97,6364.94z M6724.94,5611.95c39-5,86-14,105-19c19-6,62-19,95-28
		c356-101,687.99-377,843.99-699.99c19-38,40-82,47-97c8-14,14-35,14-45s4-23,10-29c5-5,14-30,19-54c6-25,15-65,21-90
		c28-111,32-142,37-260c3-78,1-152-7-195c-6-38-15-93-20-122c-4-28-13-66-19-85c-52-161-72-213-113-293c-90-175-271-371-467-506
		c-68-47-245-139-268-139c-7,0-27-6-45-14c-39-17-123-39-231-60c-106-22-398-22-504,0c-185,37-293,73-423,143
		c-245,130-487,376-600.99,610.99c-65,134-79,168-79,191c0,11-5,30-12,42c-6,12-15,45-20,72c-4,28-12,70-17,95c-17,75-13,374,5,460
		c19,94,42,175,60,218c8,18,14,37,14,42c0,16,67,153,94,193c14,21,26,41,26,44s34,48,76,99c194,240,433,404,693.99,477
		c30,9,79,23,109,31c29,9,74,17,100,17c25,1,60,5,76,9C6380.94,5629.95,6625.94,5624.95,6724.94,5611.95z M4499.96,5556.95
		c158-36,287-157,336-316c11-38,14-209,14-995.99c0-1014.99,1-995.99-50-1094.99c-25-49-120-153-159-175c-108-58-176-69-381-62
		c-177,6-212,16-302,84c-87,66-151,165-177,276c-8,33-11,321-11,966.99c0,995.99-1,972.99,55,1084.99c28,57,81,118,140,161
		c86,64,159,82,340,82C4381.96,5568.95,4469.96,5562.95,4499.96,5556.95z"/>
	<path class="st0" d="M6394.94,4784.96c-71-16-131-37-147-53c-7-7-18-12-25-12c-18,0-150-130-163-161c-5-13-14-31-19-39
		c-62-101-83-296-47-430c54-201,170-320,371-382c152-46,352,0,471,110c100,92,154,200,176,350c10,70,10,98-4,176
		c-22,130-64,213-153,301c-81,81-158,123-260,141C6508.94,4801.96,6471.94,4801.96,6394.94,4784.96z"/>
</g>
</svg>
