<?xml version="1.0" encoding="utf-8"?>
<!-- Generator: Adobe Illustrator 25.4.1, SVG Export Plug-In . SVG Version: 6.00 Build 0)  -->
<svg version="1.0" id="katman_1" xmlns="http://www.w3.org/2000/svg" xmlns:xlink="http://www.w3.org/1999/xlink" x="0px" y="0px"
	 viewBox="0 0 577.9 456.2" style="enable-background:new 0 0 577.9 456.2;" xml:space="preserve">
<g transform="matrix(.1 0 0 -.1 0 3009)" fill='white'>
	<path d="M2780.1,29785.2c-3.4-1.4-4.1-6.8-1.6-12.4c1.4-3,23.9-23.1,73.9-66.2c27.4-23.5,25.1-24.2,77.3,22.1
		c45.6,40.5,49.8,44.7,49.8,50c0,8,3.7,7.8-101.3,7.6C2824.9,29786.4,2781.7,29785.8,2780.1,29785.2z"/>
	<path d="M2761.2,29765.9c-2.6-3.2-2.6-195.1,0-198.2c2.1-2.5,6.6-2.8,11.3-0.5c4.1,1.8,75,83.1,79.3,90.9c3.9,7,3.3,16.2-1.4,22.5
		c-5.5,7.1-72.1,81.5-75.6,84.6C2770.5,29768.6,2763.7,29769,2761.2,29765.9z"/>
	<path d="M2980.7,29763.9c-13.8-14.1-74.4-83.4-76.3-87.6c-2.8-6.1-2.9-10.8-0.5-16.7c2.5-5.9,76-90.5,80.4-92.5
		c1.8-0.9,4.7-1.6,6.4-1.6c6.8,0,6.7-2.8,7.1,99.8c0.4,105.9,0.8,101.8-7.9,102.5C2986,29768.2,2984.4,29767.4,2980.7,29763.9z"/>
	<path d="M2864,29683.1c-4.2-3-6.7-9.7-6.7-18.3c0-15.3,5.3-20.4,21-20.4c16.3,0,19.6,3.4,19.7,20.1c0,13-0.9,15.8-6.6,18.7
		C2886.1,29686,2868.1,29685.9,2864,29683.1z"/>
	<path d="M2868.4,29640.6c-6.1-3.7-86.4-73.7-88.9-77.6c-2.8-3.9-3.2-11-0.7-13c0.9-0.8,36.7-1.4,98.4-1.7c93.8-0.5,96.9-0.4,99.7,2
		c3.4,3,3.6,6.8,0.4,11.6c-3.4,5.3-84.4,77.2-89.3,79.4C2882.1,29643.9,2873.3,29643.7,2868.4,29640.6z"/>
	<path d="M2832.7,29534c-2.2-1.3-4.9-3.7-5.5-5.1c-0.9-1.6-1.4-14.3-1.4-33.9c0-34.3,0.1-35.2,7.9-39.2c3.2-1.6,10.7-2,42-2
		c20.9,0,39.6,0.5,41.3,1.2c1.8,0.8,4.6,2.6,6.1,4.2c2.6,2.9,2.8,4.3,2.8,36c0,31.7-0.1,33.1-2.8,36c-1.4,1.6-4.2,3.4-6.1,4.2
		c-1.7,0.7-20.5,1.2-41.6,1.2C2839.7,29536.6,2836.7,29536.5,2832.7,29534z"/>
	<path d="M2660.4,29469.5c-12.2-2.5-23.7-11.4-29.5-23.1c-2.4-4.9-3.3-9.1-3.6-17.9l-0.5-11.3l-5.9-1.6c-6.8-1.6-7.4-1.3-9.5,5.5
		c-2.4,7.2-12.2,17.4-20.9,21.7c-6.4,3.2-9.1,3.7-18.7,3.7c-9.6,0-12.2-0.5-18.7-3.7c-18.2-8.9-27.1-28.1-23-49.1
		c1.1-5.4,1.1-5.5-3.2-7c-2.4-0.8-4.3-1.3-4.5-1.2c-0.1,0.3-1.3,2.5-2.5,5.1c-3.6,7.6-10.4,14.7-18,18.9c-5.9,3.2-9.1,3.9-18.4,4.3
		c-10.3,0.5-12.1,0.3-19.5-3c-8.8-4.1-16.6-11.6-21.3-20.7c-4.3-8.3-5-24.3-1.4-33.5l2.6-6.8l-3.4-2.2c-3.3-2.1-3.4-2.1-6.1,1.6
		c-8.3,11.8-19.1,17.8-33.7,18.7c-7.9,0.4-11.3,0-17.2-2.2c-9.5-3.6-17.9-11-22.9-20c-3.7-6.6-3.9-8.2-3.9-20.3
		c0-11.8,0.4-13.8,3.6-19.6l3.7-6.3l-3-2.5c-1.6-1.3-3.3-2.4-3.8-2.5c-0.7,0-3.3,2.2-6.1,5c-7.8,7.8-16.2,11.3-28.1,11.8
		c-7,0.4-12.1-0.1-16.2-1.6c-19.5-6.6-32.1-27.6-28.4-47.5c1.4-7.9,6.7-18.8,10.9-22.6c2.4-2.1,2.4-2.2-1.1-5.8l-3.6-3.7l-3.7,2.6
		c-13.2,9.3-30.5,11-43.9,4.5c-15.7-7.6-23.4-19.5-24.1-36.8c-0.7-13.5,2.6-23,11-31.6l5.8-6.1l-2.8-3.9c-1.4-2.2-3.4-3.7-4.3-3.3
		c-23.9,10.3-47.6,2.5-58.8-19.2c-2.2-4.2-3.2-8.7-3.6-17.1c-0.5-10.1-0.3-12.1,2.9-19.1c3.8-8.2,9.3-14.7,16.2-18.9
		c3.8-2.4,4.1-2.9,2.8-6.4c-0.7-2.2-1.4-3.9-1.7-3.9c-0.1,0-2.9,0.9-6.1,2.1c-3.3,1.2-9.9,2.1-15.1,2.1c-17,0-32-9.6-39.1-25
		c-2.2-4.7-2.9-8.7-2.9-17.4c0-9.6,0.5-12.2,3.7-18.7c5.9-12.2,21-23.4,31.3-23.4c3.4,0,4.2-2,3.2-7.9c-0.8-4.3-1.4-5.3-3.9-5.3
		c-9.2,0-23.4-8.7-29.3-18c-5.4-8.8-7.4-15.4-7.2-25.6c0.3-15.9,8.7-29.3,23-36.6l8-3.9h79.4h79.6l120.2,92.7
		c109.6,84.6,120.5,92.7,123,91.3c6.2-3.3,12.4-0.7,36.4,15.5c42,28.1,83.9,46,121.3,51.8c13.8,2.1,22.1,7.6,28,18.9
		c2.5,4.9,2.8,7.5,2.8,34.1l0.1,28.8l35.5,27.5l35.5,27.4h67.1c40.2,0,67.9-0.5,69.1-1.3c1.3-0.8-23-1.3-68-1.6l-70-0.4l-3-3
		c-2.8-2.8-3-4.3-3.4-20.5c-0.4-17.2-0.4-17.5,3-21.6l3.6-4.2h71.6h71.7l3.2,3.4c3,3.3,3.3,4.5,3.6,20.9l0.4,17.6l34.6-26.6
		l34.5-26.6l-0.1-23.7c-0.3-26.2,0.4-29.2,8-38c6.1-6.7,11.8-9.5,26.3-11.8c39.5-6.7,83-26.4,126-56.8c8.2-5.8,15.7-10,18.4-10.5
		c3.8-0.7,32.1-21.8,123.1-92.1l118.2-91.3h79.8h79.7l6.7,3.3c8,4.1,16.7,13,20.5,21.4c4.5,9.6,4.1,26-0.8,36
		c-5.8,11.7-17.8,20.9-29.7,22.9c-6.2,1.1-6.1,0.8-7.2,7.4c-0.8,4.6-0.7,5,2.8,5.7c22.9,5,36.2,20.6,36.2,43
		c0,26.3-23.3,46-49.5,41.8c-3.9-0.7-8.5-1.8-10.1-2.6c-3-1.7-4.3-0.9-5.7,3.6c-0.8,2.2,0.1,3.6,4.9,6.8c11.7,8,19.1,24.2,17.5,38.8
		c-2.9,27.8-30.5,45.5-56.7,36.6l-7.9-2.8l-2.2,2.9c-3.2,4.1-3,4.5,3,11c8.4,9.1,11,16.2,11,29.3c0,9.6-0.5,12.2-3.7,18.7
		c-11.3,23-41.7,31.3-62.5,16.8c-3-2.2-5.8-3.9-5.9-3.9c-0.3,0-1.7,1.7-3.3,3.8l-2.8,3.8l3.8,4.9c6.4,8.2,9.6,18.3,8.9,29.2
		c-1.1,16-9.1,28.4-23.7,36.2c-4.9,2.6-7.6,3-18.8,3c-15,0-20-1.8-30.4-11.4c-5.7-5.1-5.8-5.3-9.1-3.2c-1.8,1.2-3.3,2.5-3.3,3
		c0,0.4,1.6,4.1,3.6,8.2c3,6.2,3.7,9.1,3.7,17.9s-0.7,11.7-3.7,17.9c-7.4,15.3-19.7,23.5-36.4,24.6c-13.4,0.7-22.8-2.8-32.2-12.1
		c-3.8-3.7-7.1-7.5-7.5-8.5c-0.4-1.4-1.1-1.6-3.7-0.1c-1.8,0.9-3.4,1.8-3.7,2c-0.3,0.3,0.9,4.6,2.5,9.9c3.6,11.8,2.8,20.9-2.9,32.5
		c-7,14.5-20.8,22.8-37.7,22.8c-5,0-11.8-0.9-15.3-2.1c-7.8-2.6-19.5-13.2-23.1-21c-2.2-4.5-3.4-5.8-5.1-5c-1.2,0.4-3.2,1.2-4.3,1.4
		c-1.8,0.5-2.1,1.4-1.3,4.2c0.5,1.8,0.9,8.2,0.8,13.9c0,12.5-3.3,20.7-11.7,28.9c-10.1,10.3-26.8,14.7-41,11.3
		c-12.9-3.3-27.2-16.6-30.1-28c-0.9-4.2-1.2-4.2-8.8-2.2l-5.5,1.3v10.8c0,8.2-0.7,12.2-2.8,16.8c-10.3,22.1-35.5,31.6-57.9,21.6
		c-12.9-5.8-21.7-17.8-24.2-32.9c-1.6-9.9-4.1-13.4-11.6-16.7c-5.9-2.6-8-2.8-151.7-2.8c-108.4,0.1-146.8,0.5-150.2,1.6
		c-7.2,2.4-12.2,8.9-13.3,17.4c-1.1,7.6-5.8,18.4-10.4,23.4c-5.3,5.5-13.7,10.7-21.4,12.6C2672,29471,2668.9,29471.1,2660.4,29469.5
		z"/>
	<path d="M2806.8,29224.2c-4.2-4.5-4.7-8.3-4.7-31.6c0-23.3,0.5-27.1,4.7-31.6l3-3.3h67.2c45.6,0,68.1,0.4,70,1.4
		c5.1,2.8,6.3,8.8,6.3,33.4s-1.2,30.6-6.3,33.4c-1.8,1.1-24.3,1.4-70,1.4h-67.2L2806.8,29224.2z"/>
	<path d="M2813.1,29153.7c-2.2-2.4-2.5-5.3-2.9-23.9c-0.5-23.1-0.1-26,3.7-29.9c2.5-2.5,4.6-2.6,63.8-2.6h61.3l3.2,3.3
		c3.3,3.2,3.3,3.6,3.3,25.6c0,21.8-0.8,26.7-4.5,29.2c-0.8,0.5-29.3,1.1-63.4,1.1C2816.3,29156.5,2815.6,29156.5,2813.1,29153.7z"/>
	<path d="M2857.3,29056.9c-22.4-11.4-24.9-43-4.5-57.3c3.2-2.2,5.8-4.7,5.8-5.5c0-3.3-5.4-17-10.8-27.2
		c-34.2-65.8-112.2-97.1-182.8-73.4c-6.3,2.1-14.6,5.4-18.4,7.4c-21.4,10.7-45.4,31.3-58,50l-6.3,9.3l2.6,8
		c3.3,9.6,3.4,13.4,0.8,22.1c-2.4,8-8.2,15.3-16.2,20c-8.3,4.7-22.9,5.1-31.3,0.7c-12.8-6.7-18.3-16-18.3-30.6
		c0-14.7,5.8-24.2,19.2-30.9c7.2-3.7,7.8-5.4,7.8-27.8c0-31.3-8.8-60.1-26.4-86.2c-7.1-10.7-24.3-28.5-35.4-36.7
		c-55.6-41.2-132.7-39.1-186.4,5.3l-9.5,7.9l0.8,9.2c0.7,7.1,0.3,10.5-1.6,15.3c-9.1,23.7-38.3,30.1-55.9,12.4
		c-16.6-16.4-12.4-43.4,8.4-54.2c6.4-3.3,18.8-4.6,24.7-2.5c4.3,1.6,4.3,1.6,12-6.7c25.8-27.9,49.6-68,61.4-103.2
		c4.7-14.3,10.4-37.4,10.5-42.6c0-1.2-2.8-3.3-6.4-5.1c-7.8-3.6-15.8-11.6-20.1-19.7c-9.5-18.3,3-42,23.4-44.2
		c5.8-0.7,9.5,0.4,36,10.4c202.3,76.2,432.6,103.1,667.5,78.4c120.2-12.6,235.6-40.4,322.9-77.5c9.7-4.1,20.3-7.9,23.1-8.4
		c20.6-3.2,40,11.8,40,30.9c0,10.8-5.1,17.9-20,28c-8.9,6-11.2,8.2-10.3,9.9c0.5,1.2,2.6,7.9,4.5,15c11.3,42.1,36.2,87.1,68.3,123.6
		c8.2,9.2,9.3,10.1,13.9,10.1c18.3,0,33,15.1,33,33.8c0,13.8-5.7,23.7-17.4,30.1c-13.3,7.2-32.4,4.2-41.6-6.7
		c-7.9-9.5-10.9-24.9-6.8-34.9c1.7-4.2,1.6-4.5-2.1-7.5c-25-20.4-68.7-34.1-100.5-31.3c-40.8,3.4-73.5,18.4-100.5,45.9
		c-27.9,28.5-42.9,65-42.9,104.7c0,14.1,0.3,15.7,2.5,16.4c3.9,1.2,12.1,9.9,14.7,15.7c3,6.7,3.3,20.9,0.5,27.5
		c-8.9,21.3-38.1,27.5-55.1,11.7c-9.1-8.6-12.8-26.2-7.9-38.4l2.1-5.3l-5.7-7.6c-26.6-35.2-68.8-57.2-113.8-59.1
		c-51.2-2.2-98,20-128.5,60.8c-8.8,11.8-19.5,32.4-23.4,45.5l-2.6,8.5l4.5,7.5c7.6,12.6,7.8,24.5,0.4,36.7
		c-6.1,10.1-14.2,14.7-27,15.3C2865.8,29060.6,2863.8,29060.2,2857.3,29056.9z"/>
	<path d="M2566,28554.1c-118.1-9.9-216.5-55.2-299.2-138.1c-92.3-92.2-134.7-205.8-128.8-345.3c2.2-53.4,11.2-101.9,27.8-150.6
		c16-47.1,35.6-86.3,66.2-132.2c49.8-74.8,110.4-131.3,184-171.2c7.2-3.9,13.8-7.6,14.5-8.3c0.5-0.5-1.3-4.5-4.1-8.8
		c-2.9-4.2-9.1-14.1-13.8-22.1c-32.2-54.7-56.3-111.7-100.1-237.4c-40.4-115.7-59.1-161.9-84.6-209.7
		c-46.4-86.8-93.4-128-146.5-128.8c-20.4-0.3-37.9,5.7-49.7,16.8c-10,9.2-12.8,16.7-12.5,32.9c0.3,15.4,2.2,22.4,9.7,33.8
		c5.8,8.9,6.3,12.8,2.5,16.2c-10,9.1-43.4-2.4-59.7-20.4c-10.9-12.1-15.1-30.9-11.3-50.2c6.4-33.3,39.6-60.2,84-68.7
		c30.1-5.7,73.8-3.2,112.6,6.6c88.6,22.2,166,85.1,225.7,183.6c18.9,31,31.6,59.2,44.5,98c13,39.6,17,55.8,37,155.1
		c18.4,91.1,25.4,120.9,37.1,156.8c4.3,13.4,5.5,16,7.4,15.4c7.1-2.8,40.4-11.6,54.8-14.7c15.9-3.3,19.2-3.6,49.3-3.6
		c28.7-0.1,33.7,0.3,45.9,2.9c26.3,5.8,47.1,16.4,61.6,31.6c8.5,8.8,16.7,24.9,19.5,37.7c2.5,11.8,2.5,30.6,0,41.3
		c-8.3,34.9-43.7,62.3-90.6,70.5c-15.4,2.6-45.5,2.6-61.4-0.1c-43.9-7.5-83.5-30.4-107.6-62.5c-4.3-5.7-8.4-11.3-9.1-12.6
		c-1.3-2.1-1.6-2.1-6.2,0.3c-20,10.7-63.8,50.4-85.1,76.9c-42.7,53.8-77.1,123-93.9,189.8c-10.1,40.4-14.2,74.4-14.1,120
		c0.3,125.2,38.3,229.3,114.7,313c33.1,36.3,68.9,63.3,111.3,83.7c23.5,11.4,39.7,17.2,64.4,23.5c39.1,10,50.6,11.2,111.8,11.2
		c53.3-0.1,76-1.2,109.4-5.4c25.6-3.3,25.3-2.4,6.1-13.5c-113-65.2-177.8-147.3-190.5-240.8c-2.2-16.4-2.5-45.8-0.5-60
		c5.3-38,25.5-73,50.5-87.5c17.1-10,42.6-12.8,61.8-6.8c25.5,8,47.7,30.6,56.7,57.7c3.6,10.9,3.8,13,3.8,32.8
		c0,23.5-1.8,32.1-10.3,47.2c-7.2,13.3-11.7,13.3-15.8,0c-1.3-4.2-3.9-12.8-5.8-18.8c-6.6-21-16.4-30.2-33.8-31.4
		c-12.2-0.8-18,1.2-25.8,8.4c-7.2,6.7-13.7,19.6-16.4,32.9c-2.2,10.7-2.5,37.4-0.7,53c2.9,22.4,14.1,48.3,31.3,72.5
		c13.2,18.4,43.8,49.5,64.7,65.4c1.8,1.3,2,1.1,1.6-2.6c-0.4-3.2,1.8-9.6,8.3-23.9c19.5-43.9,29.2-71.8,33-94.4
		c2.4-14.2,2.4-14.3-0.1-15.7c-4.5-2.5-13.7-12.8-14.6-16.3c-1.3-5.3,1.2-8.9,9.2-13.2l7.4-3.8v-46c0-25.3-2.1-315.9-4.6-645.7
		l-4.6-599.8l-3.9-8.4c-3.4-7.2-7.5-11.8-30.4-34.2c-14.7-14.5-27.4-27.8-28.3-30.1c-4.3-10.3-1.2-17.9,8.2-19.6
		c10.7-2,71,1.8,96.3,6.2c21.2,3.6,41.4,3.3,62.1-0.8c22.4-4.3,50-7.2,77.6-8.2c22.2-0.7,23.1-0.5,26,2.1c3.8,3.7,3.9,13.4,0.4,19.2
		c-1.3,2.2-13.4,15.1-27,28.8c-20,20.3-25.3,26.3-28.7,33.4l-4.2,8.5l4.2,583.5c2.4,320.9,4.6,611.7,5.1,646.2l0.8,62.9l7,3.2
		c13.5,6.2,13.9,12.8,1.4,24.9l-7.8,7.8l1.6,10c3.4,21.4,15.7,54.6,35,94.7c4.7,9.9,9.1,20.5,9.5,23.5l0.9,5.7l15.8-14.2
		c28.7-25.9,49.3-52,63.1-79.8c10.5-21.2,13.5-32,15.3-54.6c1.7-20.8,0.8-35.6-2.9-48.9c-8.4-30.4-25.9-42.9-49.7-35.8
		c-14.2,4.2-22.2,15.8-28.7,41.7c-6.1,24.5-11.6,24.3-22.9-0.4c-8.8-19.3-9.9-51.6-2.4-74c8.7-26.2,32-49.2,57.5-56.7
		c25.9-7.6,54.3-0.9,74.2,17.4c14.6,13.5,28.1,37.6,33.9,60.1c7.8,30.1,7,70.2-2,106.9c-14.7,60.5-57,121.5-117.7,170.3
		c-16.4,13.3-52.2,38-70,48.4c-4.2,2.4-7.1,4.9-6.6,5.4c4.3,4.3,123.4,8.2,161.4,5.1c111.8-8.8,197.4-54.5,267.9-142.7
		c33.7-42,62.1-98.4,76.8-152c8-29.1,13.5-60.2,16.2-91.4c2.1-23,1.7-75.9-0.5-96.9c-8.5-81.3-35.1-154.3-81.5-224
		c-33.4-50.1-70.4-86.9-116-115.5l-5.4-3.4l-8.7,12.1c-24.7,34.7-60.2,57.6-105.9,68.1c-16.6,3.8-50.6,4.9-67.2,2
		c-47.1-8.3-79.8-33.3-89-68.3c-2.8-10.5-2.8-32.8,0.1-44.6c7.5-32,34.2-55.9,73.4-66.2c19.7-5.1,31.8-6.4,57.6-6.4
		c30.8,0,53.7,3.7,89.2,13.9c5.9,1.7,10,2.4,10.8,1.6c1.8-1.8,12.1-38.7,18.4-65.6c3-13,12.1-60.6,20.4-105.9
		c17.4-95.2,19.6-106.4,27.6-135.1c17.4-62.9,35.6-103.8,68.4-153c42.6-63.9,92.5-109.4,151.3-138.2c45.1-22,83.4-30.8,134.2-30.6
		c25.8,0,28.5,0.3,40.8,3.6c49.7,13.4,77.5,44.3,75.2,84.2c-0.5,9.5-1.3,13-4.7,19.9c-5.5,11.2-16.6,21.4-31,28.5
		c-9.2,4.6-12.8,5.7-20.9,6.2c-17.5,1.1-20.5-4.1-11.4-19.3c6.7-11,8.3-17.6,8.5-33c0-10.4-0.4-13.5-2.9-19.1
		c-5.5-12.1-15.9-20.1-34.5-26.4c-5.5-1.8-10.9-2.5-22.4-2.5c-18.3,0.1-30.4,3.2-47.2,11.8c-15.5,8.2-26.6,16.7-41.7,32.6
		c-22.1,23.1-38.1,47.6-59.7,91c-25.3,50.9-38.9,86.3-71.7,186.8c-24.5,75.4-30.5,93.1-41,122.3c-23.3,64.3-46.2,115-69.7,154
		l-10.4,17.2l14.9,7.5c54.1,27.4,106.3,67.7,146.1,113c69.6,78.9,114,166.5,133,262c19.5,98.1,11.8,198.5-21.6,281.5
		c-39.6,98.5-122.8,187.6-222,237.5c-84.8,42.7-173,56.7-305.4,48.4c-60.2-3.8-106.9-12.1-154.4-27.8c-18.2-5.9-21-6.6-25.1-5.3
		c-2.5,0.8-14.1,4.6-25.6,8.7c-47.2,16.4-97.3,25.8-167,31C2659.1,28554.8,2583.6,28555.5,2566,28554.1z M2896.4,28450.2
		c30.5-13.2,66.4-33.1,88.1-49.2l8.9-6.6l-4.2-0.9c-5.4-1.1-8.9-3.8-35.2-26.8c-34.2-29.9-61.7-52.5-71.9-59.1l-3.7-2.4l-8.8,7
		c-15,12-35.5,29.7-60.2,52.5c-27.8,25.5-34.2,30.8-39.2,32.4c-3.7,1.2-3.3,1.4,10.5,10.5c15.4,10.3,38.7,23.3,52.7,29.7
		c11.3,5.1,45.4,19.3,46.6,19.5C2880.5,28456.8,2887.9,28453.7,2896.4,28450.2z M2639.5,27695.9c18-3.8,31.7-12.4,38.7-24.2
		c3.2-5.4,3.6-7.4,3.6-18.5c0-15-2.2-20.1-12.5-29.3c-11.6-10.5-30-15.4-57.3-15.4c-17.5,0-29.3,1.8-47.2,7.5
		c-10.4,3.3-27.4,11.4-33.3,15.9l-3,2.4l5.4,10.8C2551.9,27681.1,2599.9,27704.3,2639.5,27695.9z M3136.2,27689.4
		c32.8-5.9,62.5-28,75.2-55.8c2.9-6.4,3.4-8.8,2.4-10.1c-2.9-3.6-25.9-13.7-38.1-17c-18.7-4.9-32.8-6.6-47.9-5.5
		c-26.3,1.6-41.8,6.7-53.4,17.4c-9.6,9.1-12.5,15.8-12.5,29.5c0.1,8.4,0.7,10.9,3.9,17c6.4,11.8,20,20.5,37.7,24.5
		C3114.2,27691.5,3123.9,27691.7,3136.2,27689.4z"/>
	<path d="M2140.2,26726.3c-3.6-4.1-5-7.8-49.7-119.4c-23.9-60.1-45.4-112.5-47.6-116.7c-2.1-4.1-5.3-8.7-6.8-10.1l-2.9-2.8l-6.3,3.9
		c-13,8.3-26.6,23.1-66.4,72.7l-23.8,29.7l13.5,13.5c22.8,22.6,29.2,36.4,29.2,62.2c0,15-0.3,16.2-4.2,24.6
		c-8,16.8-21.2,27.1-42.1,32.9c-9.7,2.6-13.5,2.8-73.8,3c-55,0.3-63.7,0-64.3-1.6c-1.2-3,2.1-4.3,10.8-4.3c9.7,0,16-3,19.7-9.2
		c2.5-4.5,2.6-6.8,3-93.9c0.5-110.6-0.7-129.9-8-136.1c-1.2-0.9-6.1-2.1-10.9-2.5c-5.7-0.4-8.9-1.3-9.3-2.5
		c-0.4-1.1-0.4-2.2,0.1-2.6c1.1-1.2,100.5-1.3,102.3-0.3c0.8,0.5,1.1,1.7,0.7,2.8c-0.5,1.4-3.9,2.2-11.7,2.8
		c-11.8,0.9-16.2,3-19.2,9.2c-2.5,5.1-4.2,29.3-4.2,61.2v27.9h17.5c21,0,16.7,3.4,43-33.5c32.5-45.6,43.4-57.7,58.4-65.1
		c12.2-5.9,20.8-6.7,65.2-6.3l40.1,0.4l0.4,3c0.4,2.8,0,2.9-7.4,2.9c-6.1,0-8.7,0.7-11.4,2.9c-5.9,4.6-4.3,13.3,8.9,48.4l11.2,29.6
		l39.6,0.4l39.7,0.3l2.4-5.5c1.3-3.2,8-20.4,14.7-38.3c12.8-34.3,13.2-36.6,6.6-37.5c-1.8-0.3-2.8-1.2-2.5-2.6c0.4-2,3-2.4,18.2-3
		c23.8-1.2,63-1.2,67.1,0c1.8,0.5,3.3,1.7,3.3,2.8c0,1.4-2.5,2.2-9.5,2.8c-14.7,1.3-21.8,6.4-30.9,22.4
		c-4.7,8.2-14.5,31.7-54.2,131.1c-37.7,94.7-38.9,97.5-42.1,100.6C2143.7,26729,2142.7,26729,2140.2,26726.3z M1909.4,26699.8
		c20.5-9.6,31-28.9,31.2-57c0-11.7-3.3-27.8-7.2-35.4c-3.2-6.2-11-14.3-16.6-17.1c-2.6-1.4-8.5-2.9-13.2-3.4
		c-10-0.9-28.1,1.3-32.4,4.1l-3,2v53.8c0,41.4,0.4,54.1,1.7,55.1c2.8,2.2,6.6,2.8,18.8,2.4
		C1899,26703.9,1902.2,26703.2,1909.4,26699.8z M2151.6,26614.6c8.4-23.3,15.3-42.6,15.3-43.1c0-0.4-14.5-0.8-32.2-0.8
		c-26.2,0-32.2,0.4-32.2,1.7c0,1.1,6.8,20.1,15.1,42.5c8.4,22.4,15.5,41.4,15.9,42.5c0.4,1.1,1.1,1.4,1.7,0.7
		C2135.8,26657.3,2143.1,26637.9,2151.6,26614.6z"/>
	<path d="M2515.8,26725.9c-1.4-1.3-22-51.3-45.8-110.7c-46.4-116.3-50.2-125.5-55.4-132.2c-4.7-6.2-12.8-9.9-23.1-10.7
		c-7.4-0.5-8.9-1.1-8.9-2.9c0-1.3,0.8-2.6,1.7-2.9c1.2-0.4,79.8-0.3,84.2,0.1c0.5,0.1,0.9,1.3,0.9,2.8c0,2.4-0.9,2.6-7.2,2.6
		c-13.4,0-17.6,4.6-15.1,16.3c0.8,3.7,6.3,19.7,12.4,35.6l10.9,28.9h39.9h40l14.5-38c15-39.7,15.4-41.7,8.8-42.6
		c-1.8-0.3-2.8-1.2-2.5-2.6c0.4-2,3-2.4,18.2-3c24.3-1.2,60.6-1.3,65.6-0.4c2.8,0.7,4.1,1.6,4.1,3.3c0,2.1-1.1,2.5-6.1,2.5
		c-17.4,0-26.7,7.4-37.2,29.5c-3.6,7.2-25.3,60.1-48.1,117.5c-22.9,57.2-42.9,105.4-44.2,106.8
		C2520,26729.1,2518.8,26729.1,2515.8,26725.9z M2527.5,26614.6c8.5-23.7,15.5-43.1,15.5-43.4c0-0.8-63.9-0.5-64.7,0.1
		c-0.4,0.4,6.3,19.5,14.9,42.5c8.7,22.9,16,42.5,16.3,43.5c0.4,1.1,1.1,1.4,1.6,1.1C2511.4,26657.9,2518.8,26638.1,2527.5,26614.6z"
		/>
	<path d="M3512.6,26727.6c-0.9-0.4-2.8-2.9-4.2-5.5c-1.3-2.8-22.1-53.9-46-113.9c-23.9-59.8-45.2-112.2-47.4-116.3
		c-4.6-9.3-12.5-16.6-20-18.7c-3.6-0.9-11.6-1.3-21.4-0.9c-19.5,0.8-23,2.2-26.6,11.2c-2.2,5.9-2.4,12.5-2.4,112.8
		c0,85.6,0.4,107.2,1.7,109.6c2.8,4.9,9.3,8.2,16.7,8.2s10.5,1.4,9.6,4.1c-0.9,2.8-103.5,3-104.6,0.3c-1.2-2.9,0.4-3.6,11.6-4.5
		c20.9-1.8,21.2-2.5,22-57.3l0.7-42.4l-3.2-0.8c-1.7-0.4-31.6-0.5-66.3-0.4l-63.1,0.4l-0.3,40.8c-0.4,45.1,0.4,51.8,6.3,56.3
		c2,1.3,6.4,2.8,9.9,3.2c10.7,0.9,12.6,1.6,12.1,4.1c-0.4,2.1-4.5,2.2-52.1,2.4c-43.4,0.1-52-0.1-52.5-1.7
		c-1.2-2.9,0.4-3.6,11.6-4.5c12.1-1.1,16.2-3.3,19.3-10.1c2-4.3,2.2-14.1,2.6-91.5c0.5-110.1-0.8-131.3-8-137.4
		c-1.2-0.9-6.1-2.1-10.9-2.5c-5.7-0.4-8.9-1.3-9.3-2.5c-0.4-1.1-0.4-2.2,0.1-2.6c1.1-1.2,104.4-1.3,106.3-0.3
		c0.8,0.5,1.1,1.7,0.7,2.8c-0.5,1.4-3.9,2.2-12,2.8c-12.6,0.9-17.9,3-20.4,8.3c-3.2,6.8-4.1,26-3.8,70.2l0.4,44.1h65.8h65.8
		l0.4-33.5c0.4-37.4-1.3-71.6-3.9-79.6c-2.1-6.4-8-9.9-17.2-9.9c-4.5,0-6.4-0.5-7.1-2.1c-0.4-1.2-0.1-2.5,0.7-3
		c1.7-1.1,189.3-0.9,190.5,0.1c0.4,0.5,0.5,1.8,0.1,3c-0.7,1.4-2.6,2-7.4,2c-13.7,0-17.5,4.3-14.9,16.8c1.4,6.7,19.5,56.2,22.8,62.3
		c1.2,2.2,3.8,2.4,40.6,2.4h39.2l4.7-12.1c17.5-45.8,24.2-64.6,23.7-66.2c-0.4-0.9-2.5-2.4-4.7-3.2c-2.2-0.8-3.7-2.1-3.4-3
		c0.4-1.2,6.2-2,20.3-2.6c23.5-1.1,156.6-0.5,157.8,0.7c0.5,0.4,0.5,1.7,0.1,2.9c-0.7,1.3-2.6,2-7.1,2c-15.3,0.1-21.8,4.3-25,15.9
		c-2,7.4-6.2,126.3-5.4,152.3l0.4,12.2l18.4-20.1c26.8-29.7,164.8-167.8,169.4-169.7c6.2-2.6,7.5,0.5,7.5,17.1
		c0.1,45.1,4.1,217.2,5.1,220.6c2.9,9.9,7.8,13.7,17.2,13.7c6.8,0,11.3,2.1,9.3,4.5c-1.1,1.3-11.4,1.7-45,1.7
		c-37.4,0.1-43.5-0.1-44.2-1.8c-1.2-3,2.1-4.3,10.5-4.3c14.3,0,21-5.7,22.6-18.9c1.1-8.7,4.5-163,3.7-163.9
		c-0.3-0.4-11.7,10.9-25.1,25c-13.5,14.1-42.4,43.7-64.1,65.8c-21.7,22.1-53,54.5-69.6,72.1c-31.2,32.9-35.2,36-37,28.9
		c-0.4-1.7-1.4-54.8-2.5-118.1c-2-124.3-2-124.2-9.1-129.4c-3.4-2.5-5.5-2.8-21-2.8c-13.9,0-18.2,0.4-21.4,2.2
		c-6.4,3.6-13.9,12.9-20,25.3c-3.2,6.2-24.6,58.4-47.7,116.1c-23,57.7-43,106.4-44.3,108.1
		C3516.6,26728,3515.2,26728.6,3512.6,26727.6z M3521.9,26616.4c8.4-23.4,15.4-43.3,15.4-44.1c0-1.3-7.2-1.7-31.4-1.7
		c-17.4,0-31.8,0.5-32.2,1.1c-0.7,1.2,30.9,87.1,32.1,87.1C3506.2,26658.8,3513.4,26639.7,3521.9,26616.4z"/>
	<path d="M2739.5,26724.5c-43.8-4.7-70.8-34.9-65.2-72.7c4.1-27.2,16.6-44.2,55.6-75.2c12-9.6,24.2-20.3,27.2-23.8
		c13.3-15.4,17.9-34.2,12.2-49.5c-3.7-9.5-14.1-19.5-24.1-23c-9.5-3.2-28.1-3.2-37.5,0c-18,6.3-29.2,21.8-31.7,44.1
		c-0.7,6.7-1.4,8.9-3.2,9.2c-3.9,0.8-5-4.5-5.8-31.6c-0.7-21.4-0.4-27.1,0.9-29.1c2.2-2.9,17.6-8.3,28.8-10
		c12.5-2.1,38-1.7,49.7,0.5c15.5,3.2,30.8,11.2,41,21.6c14.3,14.6,20.5,31.7,19.3,53.5c-1.8,31.2-16.4,51.6-61.4,86
		c-17.9,13.7-32,27.8-35.5,35.8c-3.7,8.2-3.6,20.8,0.5,29.5c6.1,13.2,18.5,19.6,37.6,19.5c9.3,0,12.5-0.7,19.2-3.7
		c13.3-6.1,21.7-17,24.9-32.2c1.2-5.9,2-7.4,3.9-7.4c2.5,0,2.6,1.4,3.6,25.6c0.7,13.9,0.7,25.9,0,26.4c-1.7,1.6-17.9,5-27.2,5.8
		C2754.1,26725.5,2748.7,26725.5,2739.5,26724.5z"/>
	<path d="M2845.6,26723.5c-0.7-1.2-2.8-9.9-4.6-19.1c-3.8-19.1-4.5-29.9-1.6-29.9c2.2,0,4.2,2.4,5.1,6.7c0.5,1.8,2.6,5.8,4.9,8.8
		c5.9,8.3,12.2,9.6,49.8,10.7c17.1,0.5,31.4,0.8,32.1,0.5c1.4-0.8,1.1-185.6-0.4-202.7c-2-21.8-4.2-25.1-17.9-26.3
		c-5.7-0.4-8.9-1.3-9.3-2.5c-0.4-1.1-0.4-2.2,0.1-2.6c1.1-1.2,104.4-1.3,106.3-0.3c0.8,0.5,1.1,1.7,0.7,2.8
		c-0.5,1.4-3.9,2.2-12.2,2.8c-18.5,1.3-21.2,4.6-23,28.4c-0.7,8.4-1.1,57-0.9,108l0.4,92.6l23-0.3c26-0.5,38.9-2.1,47-5.8
		c7.5-3.6,9.9-6.6,11.6-15.3c1.2-6,2-7.5,4.1-7.5c2.4,0,2.5,1.6,3.4,22.4c0.5,12.4,0.7,23.8,0.3,25.5c-0.5,2.6-1.2,2.9-4.9,2.1
		c-12.6-2.6-28.1-3.2-98.3-3.2c-78.1,0-98.8,0.8-108.8,4.3C2847.3,26725.6,2846.7,26725.6,2845.6,26723.5z"/>
	<path d="M2285.6,26718.4c-1.2-2.9,2.1-4.3,10.1-4.3c10.5,0,18.4-4.2,21-11.2c2.6-7.4,2.9-224.1,0.3-244.9
		c-2.2-17.1-5.9-30.4-11.2-40.5c-5-9.3-20.4-25.5-28-29.3c-6.1-3.2-9.1-6.2-7.8-8.2c1.4-2.2,4.3-1.4,16.2,4.5
		c35,17.8,60.9,45.5,69.1,74.4c5.3,18.5,5.4,21.2,5.4,132.2c0.1,120.2-0.1,116.3,8.7,120.6c2.5,1.3,7.2,2.4,10.5,2.4
		c6.7,0,9.9,1.4,8.9,4.1C2387.9,26721,2286.6,26721.1,2285.6,26718.4z"/>
	<path d="M3236.1,26314.2c-1.4-1.4-4.2-5.9-6.3-10.1s-40.1-97.3-84.4-206.9c-44.2-109.6-83.1-204.3-86.3-210.4
		c-13.2-25.6-29.2-35.5-57.2-35.5c-6.3,0-9.5-0.7-10.9-2.1c-2.5-2.4-2.5-2.6-0.8-5.8c2-3.8,8.5-4.2,50-2.8c26.6,0.9,48.9,0.9,70.8,0
		c34.1-1.3,38.4-0.9,39.5,4.6c0.9,4.5-3.3,6.1-16,6.1c-25.1,0.1-31.2,8.7-24.5,35c2.8,10.8,38.4,105.5,41.6,110.7l1.8,2.9h71.7h71.7
		l1.8-2.9c2.5-3.8,52.1-134,52.1-136.7c0-3.7-4.1-7.6-9.3-9.1c-6.1-1.7-7.8-4.5-4.7-7.6c4.1-3.9,152.6-5.7,159.8-1.7
		c3.6,1.8,3.7,6.2,0.4,8c-1.4,0.7-6.3,1.3-11,1.3c-32,0-48.8,13.5-68.7,55.8c-10.1,21.3-40,94-113.1,275.7
		c-33.5,83.4-45.2,111.5-50.1,121.3C3247.4,26316.4,3241.7,26319.7,3236.1,26314.2z M3256.3,26111.6c15.8-42.9,28.4-78.8,28-79.7
		c-1.1-2.6-117.6-2.8-118.5-0.1c-0.7,1.3,9.7,29.3,56.2,151.9c1.4,3.8,3.3,6.7,4.1,6.4
		C3226.9,26189.9,3240.5,26154.5,3256.3,26111.6z"/>
	<path d="M2308.2,26310.1c-115.3-11.8-194.1-80.8-217.2-189.7c-4.6-22-5.8-60.1-2.6-83c11.6-82.2,58.4-148.4,128.4-181.4
		c34.2-16.2,64.8-22.9,109.8-24.2c80.2-2.2,144.9,21.4,194.8,71.2c38,38.1,60.2,83.9,68.4,141.1c2.4,16.8,2.6,55.1,0.5,72.1
		c-8.3,66.7-38.9,118.5-90.1,152.7c-30.9,20.5-65,32.9-109.2,39.5C2375.2,26310.8,2324.5,26311.8,2308.2,26310.1z M2355.3,26279.2
		c53.7-10.3,97.2-44.2,123.2-96.3c20.6-41.2,29.5-90.2,26.3-145.1c-2.5-43-9.3-72.6-23.4-100.5c-8.3-16.7-15-26-27.1-38.1
		c-32.2-32.1-78.3-44.1-129.7-33.5c-57.1,11.6-100.2,46.8-127.5,103.9c-17,35.6-25.1,75.2-25.1,122.6c0,103,38.7,167,111.5,185.3
		C2305.2,26282.7,2332.7,26283.4,2355.3,26279.2z"/>
	<path d="M4027.9,26310.8c-71-9.1-115.1-46.7-121-103.2c-3-30,4.6-60,22.1-86.7c17.9-27.2,34.9-43.8,83.1-81.3
		c50.5-39.2,67.5-60,73.1-89.3c5.1-27.2-0.5-47.7-18.4-65.6c-14.6-14.6-32.2-22.1-56-23.7c-20.9-1.4-45.2,4.2-60.1,13.8
		c-22.8,15-35.9,39.1-40,72.5c-1.7,14.5-2.8,17.1-6.4,17.1c-7.2,0-8.7-9.9-10.1-68c-0.7-28.7-0.4-37.9,0.9-41
		c2-4.9,11.6-9.9,28.9-15.1c22-6.6,33.5-7.9,68.4-8c33,0,42.9,1.1,63.1,6.8c28.9,8.3,58.1,28.3,74.4,51c6.4,8.9,14.2,25.6,17.8,37.5
		c3.9,13.9,5,47.1,2,63.7c-8.8,46.6-35.9,80.1-110.6,136.8c-52.1,39.5-69.3,60.8-71.3,88.3c-1.3,18.3,5,34.9,18,47.2
		c14.2,13.5,31.3,19.6,55.9,19.6c26.7,0,43.8-6.4,60-22.6c14.2-14.2,23.4-33.9,23.5-50.1c0-5.5,2-7.9,6.2-7.9
		c5.5,0,6.2,3.7,7.1,44.3c0.5,21.2,1.3,40.8,1.8,43.4c0.5,3.3,0.1,5.8-0.9,7.4c-2.1,2.8-20.9,7.6-41.2,10.8
		C4084.4,26310.4,4038.1,26311.9,4027.9,26310.8z"/>
	<path d="M1627.7,26300.6c-2.2-2.2-1.7-5.9,0.8-7.2c1.3-0.7,8.9-1.6,16.8-2c24.2-1.2,35-6.4,39.5-19.1c3.7-10.7,4.5-42.1,4.5-183.1
		c0.1-197.3-1.4-221.1-14.2-231.9c-4.6-3.8-14.1-6.2-25.1-6.2c-9.5,0-14.5-1.7-14.5-5.1c0-4.7,3.6-6.1,17-5.9
		c13.3,0.1,127.3,0.1,154.8,0c16.7-0.1,20.3,0.9,20.3,5.9c0,3.6-4.1,5.1-12.8,5.1c-12.5,0-29.3,2.6-34.6,5.3
		c-14.3,7.4-16.4,20.6-17.9,113.4c-0.8,45.9-0.7,57.9,0.8,59.6c1.8,2.2,15.4,2.6,46.8,1.1l18.3-0.8l4.2-4.5
		c2.4-2.4,15.8-20.7,30-40.6c48.9-68.5,68.1-93,87.6-111.7c16.3-15.5,31.3-24.7,47.6-29.1c11.2-3,42.7-4.7,79.3-4.2
		c36,0.4,38.7,0.9,38.7,6.4c0,3.4-3.3,4.6-15.1,5.5c-33.1,2.5-59.5,19.7-100,65.5c-25.4,28.8-112.5,135.5-112.5,137.8
		c0,0.7,5.4,5.8,12,11.4c34.6,29.9,55.8,60.2,64.6,92.6c2.5,9.5,3,14.3,3,32.2c0,20.4-0.1,21.4-4.3,33.5
		c-7.5,21.7-20.3,40.1-35,50.6c-17.9,12.8-42,21.3-69.8,24.9C1840.2,26302.6,1629.9,26302.9,1627.7,26300.6z M1822.2,26271.4
		c4.7-1.2,13.5-4.5,19.7-7.5c8.8-4.5,13.5-7.9,22.5-16.8c9.3-9.3,12.4-13.3,17.4-23.7c10.9-22,15.3-47.9,12.8-76
		c-2.8-30.6-10.9-51.6-26.6-68.1c-6.6-7-11.8-10.9-18-13.9l-8.7-4.3h-27c-21.3,0-29.1,0.5-37,2.4c-16.6,3.8-15-7-15.4,102.7
		c-0.3,52.1,0,96.8,0.4,99c0.4,2.5,2,5,3.6,5.8C1773.3,26274.8,1806.2,26275.1,1822.2,26271.4z"/>
	<path d="M2597.7,26300.8c-5.1-2.9-0.4-8.9,7-8.9c13,0,28.4-7.4,41.8-20.1c18.3-17.4,28.8-32.5,82.9-120
		c53-85.9,58.4-95.6,64.4-117.7c2.1-7.8,2.4-15.4,2.4-78.3c0-71.9-0.5-79.2-5.5-89.4c-3-5.9-8.2-10.9-13-12.5
		c-2.2-0.8-9.9-1.8-17-2.5c-13.8-1.2-18.4-3.4-15.7-7.6c2.5-3.9,9.2-4.3,50-3c26.2,0.8,56.2,0.8,88.4-0.1c50.6-1.3,58.3-0.9,60,3.7
		c1.8,4.6-2.4,6.1-19.2,7.1c-20,1.3-25.5,2.2-31.3,5.1c-15.7,8-17.5,20.6-16.8,115.7l0.5,62.5l3.6,11.6c2,6.3,5.7,15.8,8.3,21
		c10.7,21.2,43.5,77.2,72.6,123.9c51,81.7,66,96.7,101.4,100.6c10.8,1.2,14.9,3.7,12.5,7.6c-1.3,2.1-6.6,2.2-73,2.2h-71.6l-0.4-3.4
		c-0.4-3.6,1.8-5.1,10.8-7.1c2.1-0.4,5.8-2.8,8.3-5.3c5.1-5.1,5.7-10.1,2.1-24.1c-2.9-11.6-11.7-28.7-51.7-99.6
		c-18.3-32.5-36.6-65.4-40.5-72.9c-6.2-11.6-7.4-13.3-8.5-11.2c-0.8,1.4-13.5,23.5-28.5,49.2c-63.4,108.6-80.5,139.6-82.3,149.3
		c-1.3,7.5,2.1,12,11.6,14.7c8.7,2.6,11.8,5.5,9.2,8.7c-1.3,1.6-13.7,1.8-81,1.8C2633.9,26301.9,2599,26301.4,2597.7,26300.8z"/>
	<path d="M3507.5,26301.4c-2.6-0.9-2-6.7,0.8-8.3c1.4-0.7,6.6-1.3,11.6-1.3c11.4,0,24.7-3.2,30.9-7.2c6.4-4.2,9.9-11.3,11.8-23.9
		c2.2-14.3,2.2-333.9,0-359.1c-3.7-41.4-8.3-48.4-33.4-50c-14.3-0.9-18.2-2.1-18.2-5.5c0-6.6,4.3-7,52.3-5.4
		c33.8,1.2,54.7,1.1,110.9-0.7c38-1.2,83.5-2,101.3-1.7c37,0.5,39.1,1.1,43.4,10.9c3.2,7.1,7,29.5,9.7,57.2
		c2.5,24.3,1.8,28.9-3.8,28.9c-3.8,0-5.4-2.4-6.7-10.5c-1.4-8.8-6.6-21.6-12-29.7c-12.5-18.8-32.5-23.9-87.3-22.5
		c-32.9,0.9-45.5,2.9-56.6,8.5c-15.5,7.9-17.6,16.2-19.9,77.2c-1.8,51-0.8,291.5,1.3,304.9c2.4,15.1,8,23,18.4,25.9
		c2.6,0.8,10.4,1.7,17.2,2.1c18.2,1.1,20.8,1.6,21.7,4.6c2,6.2,4.1,6.1-97.1,6.1C3551.8,26301.9,3508.3,26301.7,3507.5,26301.4z"/>
</g>
</svg>
