<?xml version="1.0" encoding="utf-8"?>
<!-- Generator: Adobe Illustrator 28.7.1, SVG Export Plug-In . SVG Version: 9.03 Build 54978)  -->
<svg version="1.0" id="katman_1" xmlns="http://www.w3.org/2000/svg" xmlns:xlink="http://www.w3.org/1999/xlink" x="0px" y="0px"
	 viewBox="0 0 841.9 595.3" style="enable-background:new 0 0 841.9 595.3;" xml:space="preserve">
<style type="text/css">
	.st0{fill:#0E4E9D;}
</style>
<path id="Logo_ratio" class="st0" d="M99.9,319.8v-7h24.6v8.9c-0.1,4.5,3.6,8.3,8.1,8.4c0.4,0,0.7,0,1.1-0.1c4.1,0.6,8-2.1,8.9-6.2
	c0.7-2.3,0.6-4.6-0.2-6.9c-4.8-12-37.4-17.4-41.5-36.1c-0.8-4.1-0.9-8.3-0.2-12.5c2.5-15,15.7-20.4,32.1-20.4c13,0,31,3,31,23.2v6.6
	h-22.9v-5.8c0.3-4.3-3-8.1-7.4-8.3c-0.4,0-0.8,0-1.2,0c-4-0.4-7.7,2.3-8.4,6.2c-0.3,1.6-0.2,3.2,0.2,4.8
	c2.7,10.7,37.5,16.5,41.3,35.8c1,5,1,10.1,0.2,15.2c-2.2,15.3-15.9,21.1-32.4,21.1C115.9,346.6,99.9,340.4,99.9,319.8z M398.4,319.5
	v-7h24.3v8.8c-0.1,4.5,3.4,8.2,7.8,8.4c0.4,0,0.8,0,1.2-0.1c4.1,0.6,8-2,8.9-6.1c0.7-2.2,0.6-4.5-0.2-6.7
	c-4.6-11.8-36.9-17.3-41-35.9c-0.8-4.1-0.9-8.2-0.2-12.3c2.6-14.9,15.8-20.3,31.8-20.3c12.9,0,30.7,3.2,30.7,23v6.4h-22.7v-5.6
	c0.3-4.3-3-8-7.3-8.3c-0.4,0-0.7,0-1.1,0c-3.9-0.5-7.6,2.2-8.3,6.1c-0.3,1.6-0.2,3.2,0.2,4.8c2.5,10.7,37,16.3,40.9,35.5
	c1,5,1,10,0.2,15c-2.2,15.3-15.7,20.9-32.1,20.9C414.4,346,398.4,339.8,398.4,319.5z M485.6,322.9c-0.2-2-0.3-4.1-0.2-6.1v-66.1
	h23.2v68.2c0,1.2,0,2.3,0.2,3.5c1.3,4.8,6.3,7.7,11.1,6.4c3.1-0.8,5.6-3.3,6.4-6.4c0.1-1.2,0.2-2.3,0.2-3.5v-68.2h23.2v66.1
	c0,1.8-0.2,5.1-0.2,6.1c-1.6,17.3-15.1,22.8-32,22.8S487.2,340.1,485.6,322.9L485.6,322.9z M676.7,321.9c-0.2-2-0.3-4.1-0.3-6.1V277
	c0-1.6,0.2-4.5,0.3-6.1c2.1-17.2,15.9-22.7,32.3-22.7c16.2,0,30.5,5.4,32.1,22.7c0.2,2,0.2,4.1,0.2,6.1v3H718v-5.1
	c0-1.2-0.1-2.4-0.3-3.5c-1.6-5-7-7.9-12-6.3c-3,0.9-5.3,3.3-6.3,6.3c-0.3,1.4-0.4,2.9-0.3,4.3v42.2c0,1.2,0,2.3,0.2,3.5
	c1.1,4.3,5.2,7.2,9.7,6.7c4.4,0.5,8.4-2.4,9.4-6.7c0.2-1.2,0.3-2.3,0.2-3.5v-13.4h-9.4v-13.4h32.4v24.7c0,2-0.1,4.1-0.3,6.1
	c-1.6,16.8-16,22.7-32.3,22.7C692.7,344.5,678.3,338.7,676.7,321.9L676.7,321.9z M353.1,342.8l-0.6-85.3l-15.9,85.3h-23.2
	l-15.7-85.3l-0.6,85.3h-22.9l1.9-92h37.4l11.6,71.9l11.6-71.9H374l2.1,92H353.1z M231,342.8l-12.4-85.3l-12.7,85.3h-24.8l16.9-92
	h40.9l16.9,92H231z M619.6,341.8l-23.1-76.5l1.3,76.5h-22.6v-91h34l21.6,74.1l-1.2-74.1h22.7v91.1L619.6,341.8z"/>
</svg>
